<svg id="Layer_1" data-name="Layer 1" xmlns="http://www.w3.org/2000/svg" viewBox="0 0 512 512"><defs><style>.cls-1{fill:#495875;}.cls-2{fill:#2686ef;}</style></defs><title>gesture-47-filled</title><path class="cls-1" d="M409.92,195.29a45.4,45.4,0,0,0,10.88-34c-1.76-18.54-15.44-33.82-33.21-38.95A45.49,45.49,0,0,0,390.68,101c-1.54-16.21-12.2-29.93-26.73-36.54a45.45,45.45,0,0,0,4.14-23.69C365.9,17.92,345.59,0,321.82,0H262.16a139.18,139.18,0,0,0-48,8.52L201,13.32a151.33,151.33,0,0,1-52.25,9.27h-44A15.06,15.06,0,0,0,89.71,37.65V256a15.06,15.06,0,0,0,15.06,15.06h23.13c60.21,0,74,44.24,86.17,83.26l2.24,7.11c5.91,18.57,20.17,30.1,37.2,30.1,25.93,0,47-21.1,47-46.3.09-1.79,1.52-37.06-17.57-74.17h94.17a45.19,45.19,0,0,0,45-49.56A44,44,0,0,0,409.92,195.29ZM388.27,236a14.91,14.91,0,0,1-11.15,4.93H255.35a15.06,15.06,0,0,0-11.74,24.48c28.29,35.25,26.84,78,26.8,79.07a16.94,16.94,0,0,1-16.92,16.92c-5.19,0-7.82-7-8.51-9.12l-2.17-6.93c-13-41.58-32.56-104.42-114.93-104.42h-8.07V52.71h29A181.29,181.29,0,0,0,211.4,41.6l13.1-4.79a109.19,109.19,0,0,1,37.67-6.68h59.66c8.4,0,15.56,5.94,16.28,13.53a15.05,15.05,0,0,1-15,16.59H308.06a15.06,15.06,0,1,0,0,30.12h36.35c8.4,0,15.56,5.94,16.28,13.53a15.05,15.05,0,0,1-15,16.59H330.65a15.06,15.06,0,1,0,0,30.12h43.88c8.4,0,15.56,5.94,16.28,13.53a15.05,15.05,0,0,1-15,16.59H360.77a15.06,15.06,0,1,0,0,30.12h15.06c8.4,0,15.56,5.94,16.28,13.53A15,15,0,0,1,388.27,236Z"/><path class="cls-2" d="M255.35,421.65a15.06,15.06,0,0,0-15.06,15.06v60.24a15.06,15.06,0,0,0,30.12,0V436.71A15.06,15.06,0,0,0,255.35,421.65Z"/><path class="cls-2" d="M180.06,361.41A15.06,15.06,0,0,0,165,346.35H104.77a15.06,15.06,0,0,0,0,30.12H165A15.06,15.06,0,0,0,180.06,361.41Z"/><path class="cls-2" d="M405.94,346.35H345.71a15.06,15.06,0,0,0,0,30.12h60.24a15.06,15.06,0,1,0,0-30.12Z"/><path class="cls-2" d="M184.47,403.47l-45.18,45.18a15.06,15.06,0,1,0,21.29,21.29l45.18-45.18a15.06,15.06,0,0,0-21.29-21.29Z"/><path class="cls-2" d="M326.24,403.47a15.06,15.06,0,0,0-21.29,21.29l45.18,45.18a15.06,15.06,0,1,0,21.29-21.29Z"/></svg>